<?xml version="1.0" encoding="UTF-8"?>
<svg id="Layer_1" data-name="Layer 1" xmlns="http://www.w3.org/2000/svg" viewBox="0 0 5776 1600">
  <defs>
    <style>
      .cls-1 {
        fill: #eb4422;
      }
    </style>
  </defs>
  <path class="cls-1" d="M1689.103,600v400c0,106.648-86.455,193.103-193.103,193.103-106.648,0-193.103-86.455-193.103-193.103v-400s-206.897,0-206.897,0v406.897c0,217.105,175.998,393.103,393.103,393.103h13.793c217.105,0,393.103-175.998,393.103-393.103v-406.897s-206.897,0-206.897,0Z"/>
  <path class="cls-1" d="M3316,560c-231.96,0-420,188.04-420,420s188.04,420,420,420,420-188.04,420-420-188.04-420-420-420ZM3316,1181.6c-111.341,0-201.6-90.26-201.6-201.6s90.259-201.6,201.6-201.6,201.6,90.259,201.6,201.6-90.259,201.6-201.6,201.6Z"/>
  <path class="cls-1" d="M2597.6,200v411.498c-59.846-32.81-128.535-51.498-201.6-51.498-231.96,0-420,188.04-420,420s188.04,420,420,420,420-188.04,420-420V200h-218.4ZM2396,1181.6c-111.341,0-201.6-90.26-201.6-201.6s90.259-201.6,201.6-201.6,201.6,90.259,201.6,201.6-90.259,201.6-201.6,201.6Z"/>
  <path class="cls-1" d="M4236,560c-231.96,0-420,188.04-420,420s188.04,420,420,420,420-188.04,420-420-188.04-420-420-420ZM4236,1181.6c-111.341,0-201.6-90.26-201.6-201.6s90.259-201.6,201.6-201.6,201.6,90.259,201.6,201.6-90.259,201.6-201.6,201.6Z"/>
  <path class="cls-1" d="M5156,560c-231.96,0-420,188.04-420,420s188.04,420,420,420,420-188.04,420-420-188.04-420-420-420ZM5156,1181.6c-111.341,0-201.6-90.26-201.6-201.6s90.259-201.6,201.6-201.6,201.6,90.259,201.6,201.6-90.259,201.6-201.6,201.6Z"/>
  <path class="cls-1" d="M793.104,600v400c0,106.648-86.455,193.104-193.104,193.104s-193.104-86.456-193.104-193.104h-206.896v6.896c0,217.105,175.999,393.104,393.104,393.104h13.793c217.105,0,393.104-175.999,393.104-393.104v-406.896h-206.896Z"/>
</svg>