<?xml version="1.0" encoding="UTF-8"?>
<svg id="Layer_1" data-name="Layer 1" xmlns="http://www.w3.org/2000/svg" viewBox="0 0 1080 1080">
  <defs>
    <style>
      .cls-1 {
        fill: #eb4422;
      }

      .cls-2 {
        fill: #fff;
      }
    </style>
  </defs>
  <circle class="cls-1" cx="539.706" cy="540" r="540"/>
  <g>
    <path class="cls-2" d="M356.592,549.948v113.226c0,30.188-24.472,54.661-54.661,54.661-30.188,0-54.661-24.472-54.661-54.661v-113.226s-58.565,0-58.565,0v115.178c0,61.455,49.819,111.274,111.274,111.274h3.904c61.455,0,111.274-49.819,111.274-111.274v-115.178s-58.565,0-58.565,0Z"/>
    <path class="cls-2" d="M771.819,300.852c-65.66,0-118.887,53.228-118.887,118.887s53.228,118.887,118.887,118.887,118.887-53.228,118.887-118.887-53.228-118.887-118.887-118.887ZM771.819,476.805c-31.517,0-57.066-25.549-57.066-57.066s25.549-57.066,57.066-57.066,57.066,25.549,57.066,57.066-25.549,57.066-57.066,57.066Z"/>
    <path class="cls-2" d="M591.11,205.742v109.687c-16.94-9.287-36.384-14.577-57.066-14.577-65.66,0-118.887,53.228-118.887,118.887s53.228,118.887,118.887,118.887,118.887-53.228,118.887-118.887v-213.997h-61.821ZM534.045,476.805c-31.517,0-57.066-25.549-57.066-57.066s25.549-57.066,57.066-57.066,57.066,25.549,57.066,57.066-25.549,57.066-57.066,57.066Z"/>
    <path class="cls-2" d="M534.045,538.626c-65.66,0-118.887,53.228-118.887,118.887s53.228,118.887,118.887,118.887,118.887-53.228,118.887-118.887-53.228-118.887-118.887-118.887ZM534.045,714.579c-31.517,0-57.066-25.549-57.066-57.066s25.549-57.066,57.066-57.066,57.066,25.549,57.066,57.066-25.549,57.066-57.066,57.066Z"/>
    <path class="cls-2" d="M771.819,538.626c-65.66,0-118.887,53.228-118.887,118.887s53.228,118.887,118.887,118.887,118.887-53.228,118.887-118.887-53.228-118.887-118.887-118.887ZM771.819,714.579c-31.517,0-57.066-25.549-57.066-57.066s25.549-57.066,57.066-57.066,57.066,25.549,57.066,57.066-25.549,57.066-57.066,57.066Z"/>
    <path class="cls-2" d="M356.592,312.174v113.226c0,30.188-24.472,54.661-54.661,54.661s-54.661-24.473-54.661-54.661h-58.565v1.952c0,61.455,49.819,111.274,111.274,111.274h3.904c61.455,0,111.274-49.819,111.274-111.274v-115.178h-58.565Z"/>
  </g>
</svg>